<svg xmlns="http://www.w3.org/2000/svg" width="320" height="200" viewBox="0 0 320 200" role="img" aria-label="Poker shark celebrating">
  <defs>
    <linearGradient id="bodyCelebrate" x1="0%" y1="0%" x2="100%" y2="0%">
      <stop offset="0%" stop-color="#7df0ff" />
      <stop offset="100%" stop-color="#1f8bd9" />
    </linearGradient>
    <linearGradient id="bellyCelebrate" x1="0%" y1="0%" x2="0%" y2="100%">
      <stop offset="0%" stop-color="#fff" stop-opacity="0.9" />
      <stop offset="100%" stop-color="#d9f4ff" stop-opacity="0.8" />
    </linearGradient>
  </defs>
  <rect width="320" height="200" rx="16" fill="#03152a" />
  <g fill="none" stroke-width="4" stroke-linecap="round">
    <path d="M38 34l14 10" stroke="#ffd966" />
    <path d="M70 22l4 16" stroke="#ff85c2" />
    <path d="M96 30l-6 14" stroke="#70ff8f" />
    <path d="M282 38l-14 10" stroke="#ffd966" />
    <path d="M250 26l-4 16" stroke="#ff85c2" />
    <path d="M224 34l6 14" stroke="#70ff8f" />
  </g>
  <ellipse cx="160" cy="158" rx="118" ry="22" fill="#041b33" opacity="0.7" />
  <path d="M28 124c21-52 120-122 232-78 15 6 26 18 26 32 0 14-9 25-23 33 8 6 12 14 11 24-2 15-15 25-30 26-85 5-144-2-195-20-11-4-19-11-24-20-4-7-4-16 3-23z" fill="url(#bodyCelebrate)" />
  <path d="M100 98c37-16 100-19 138 5 11 7 17 15 17 24 0 11-9 20-21 22-38 6-103 2-140-16-9-4-15-13-15-22 0-6 3-11 8-13z" fill="url(#bellyCelebrate)" />
  <path d="M69 138c-8-8-8-22 1-30 15 13 28 22 52 30-13 13-37 13-53 0z" fill="#47a4df" />
  <circle cx="226" cy="92" r="16" fill="#fff" />
  <circle cx="230" cy="94" r="8" fill="#061628" />
  <circle cx="234" cy="90" r="3" fill="#fff" />
  <path d="M195 124c15 18 41 27 69 27 6 0 11 5 11 11v1c-30 9-76 8-97-18z" fill="#0f3557" opacity="0.35" />
  <path d="M206 138c-20 5-36 5-52-6 16 0 31-2 47-6 8-2 14 6 5 12z" fill="#f6ffff" opacity="0.6" />
  <g fill="#ffd966">
    <circle cx="110" cy="48" r="4" />
    <circle cx="208" cy="36" r="3" />
    <circle cx="262" cy="62" r="5" />
    <circle cx="68" cy="70" r="3" />
  </g>
  <g fill="#ff85c2">
    <rect x="130" y="46" width="4" height="10" rx="2" />
    <rect x="244" y="54" width="4" height="10" rx="2" />
  </g>
  <g fill="#70ff8f">
    <polygon points="150,28 158,42 142,42" />
    <polygon points="186,20 194,34 178,34" />
  </g>
</svg>
