<svg xmlns="http://www.w3.org/2000/svg" width="320" height="200" viewBox="0 0 320 200" role="img" aria-label="Poker shark thinking pose">
  <defs>
    <linearGradient id="bodyThinking" x1="0%" y1="0%" x2="100%" y2="0%">
      <stop offset="0%" stop-color="#66e0ff" />
      <stop offset="100%" stop-color="#2a5da8" />
    </linearGradient>
    <linearGradient id="bellyThinking" x1="0%" y1="0%" x2="0%" y2="100%">
      <stop offset="0%" stop-color="#f9fdff" stop-opacity="0.95" />
      <stop offset="100%" stop-color="#cddbf5" stop-opacity="0.85" />
    </linearGradient>
  </defs>
  <rect width="320" height="200" rx="16" fill="#041426" />
  <ellipse cx="168" cy="160" rx="120" ry="24" fill="#061a32" opacity="0.65" />
  <path d="M44 134c12-52 120-128 222-90 15 5 27 18 27 32 0 13-7 23-19 31 9 5 14 13 13 23-1 17-13 29-31 32-86 13-148 8-196-10-13-5-22-13-26-24-2-8 0-16 10-24z" fill="url(#bodyThinking)" />
  <path d="M112 106c33-14 91-16 126 5 11 6 17 14 17 23 0 11-9 20-21 22-34 6-95 0-128-18-9-5-14-13-13-22 0-5 4-9 9-10z" fill="url(#bellyThinking)" />
  <path d="M85 142c-7-9-6-23 3-30 15 14 28 22 48 28-12 14-35 13-51 2z" fill="#3d8bcf" />
  <circle cx="220" cy="100" r="15" fill="#fff" />
  <circle cx="224" cy="102" r="7" fill="#0b1c30" />
  <circle cx="227" cy="99" r="3" fill="#fff" />
  <path d="M180 136c14 14 34 21 57 22 5 0 9 4 9 9v1c-25 8-63 6-82-14z" fill="#10304c" opacity="0.4" />
  <path d="M192 146c-20 4-34 3-47-7 13 0 27-2 39-5 8-2 15 6 8 12z" fill="#f5fbff" opacity="0.55" />
  <g fill="#d5e8ff">
    <circle cx="246" cy="40" r="18" />
    <circle cx="274" cy="24" r="10" />
    <circle cx="286" cy="12" r="6" />
  </g>
  <path d="M246 40c14 0 24 8 24 18s-10 18-24 18c-11 0-20-5-23-13 3-14 8-23 23-23z" fill="#fefeff" opacity="0.35" />
  <path d="M116 150c20 10 50 16 83 16 14 0 28-2 41-5-15 13-35 21-57 22-26 1-54-6-78-19z" fill="#082036" opacity="0.45" />
</svg>
